<?xml version="1.0" standalone="no"?>
<!DOCTYPE svg PUBLIC "-//W3C//DTD SVG 20010904//EN"
 "http://www.w3.org/TR/2001/REC-SVG-20010904/DTD/svg10.dtd">
<svg version="1.0" xmlns="http://www.w3.org/2000/svg"
 width="751.000000pt" height="751.000000pt" viewBox="0 0 751.000000 751.000000"
 preserveAspectRatio="xMidYMid meet">
<metadata>
Created by potrace 1.14, written by Peter Selinger 2001-2017
</metadata>
<g transform="translate(0.000000,751.000000) scale(0.100000,-0.100000)"
fill="#000000" stroke="none">
<path d="M3488 6925 c-2 -1 -37 -6 -77 -9 -41 -4 -78 -9 -81 -11 -4 -2 -22 -7
-41 -10 -76 -13 -118 -26 -234 -70 -197 -76 -374 -194 -528 -352 -122 -125
-206 -249 -342 -508 -32 -60 -70 -132 -85 -160 -15 -27 -80 -149 -145 -270
-65 -121 -142 -265 -173 -320 -30 -55 -68 -125 -85 -155 -77 -142 -103 -191
-145 -265 -25 -44 -69 -123 -97 -175 -28 -52 -127 -232 -220 -400 -92 -168
-182 -330 -198 -360 -17 -30 -49 -89 -72 -130 -23 -41 -58 -104 -77 -140 -19
-36 -81 -148 -138 -250 -210 -378 -258 -466 -290 -525 -18 -33 -50 -91 -71
-128 -22 -38 -39 -70 -39 -72 0 -2 -14 -28 -31 -57 -17 -29 -48 -84 -68 -121
-20 -37 -43 -80 -52 -95 -71 -125 -138 -291 -154 -383 -3 -18 -8 -36 -11 -40
-11 -19 -30 -203 -28 -284 4 -233 60 -404 202 -618 149 -224 391 -369 675
-404 115 -14 366 -7 472 13 10 2 37 6 60 9 188 28 570 150 889 287 280 119
800 381 1031 518 402 238 770 366 1033 359 259 -7 425 -78 847 -359 400 -267
635 -377 965 -450 222 -50 505 -69 665 -45 73 11 209 52 264 79 215 110 350
328 389 634 9 75 8 465 -2 567 -31 323 -226 756 -486 1078 -236 294 -524 512
-850 643 l-105 42 -43 78 c-43 79 -109 202 -185 344 -22 41 -55 103 -73 138
-19 34 -50 92 -70 130 -20 37 -51 94 -69 127 -18 33 -54 101 -80 150 -26 50
-60 113 -75 140 -15 28 -47 86 -70 130 -24 44 -57 107 -75 140 -18 33 -56 105
-85 160 -29 55 -61 114 -70 130 -10 17 -38 68 -62 115 -259 492 -296 549 -472
725 -124 124 -254 216 -406 288 -84 40 -198 83 -240 92 -8 2 -44 10 -80 18
-36 9 -87 18 -115 22 -51 7 -291 15 -297 10z m252 -2537 c58 -22 123 -64 173
-112 36 -34 74 -95 152 -238 l104 -193 -27 -12 c-15 -7 -76 -34 -137 -59 -140
-59 -395 -187 -595 -298 -132 -74 -368 -194 -490 -249 -62 -29 -293 -117 -296
-114 -4 4 7 25 151 292 18 33 53 98 78 145 24 47 59 112 77 145 18 33 53 98
78 145 24 47 60 112 77 145 18 33 50 92 72 132 21 39 52 92 70 116 50 72 149
137 253 166 46 13 215 6 260 -11z"/>
</g>
</svg>
