<svg xmlns="http://www.w3.org/2000/svg" xmlns:xlink="http://www.w3.org/1999/xlink" viewBox="0 0 1000 1000"><defs><style>.cls-1{fill:#00613b;stroke-width:25px;}.cls-1,.cls-3{stroke:#00613b;stroke-miterlimit:10;}.cls-2{fill:url(#Dégradé_sans_nom_11);}.cls-3{fill:none;stroke-width:0.25px;}</style><linearGradient id="Dégradé_sans_nom_11" x1="769.17" y1="626.19" x2="114" y2="662.96" gradientUnits="userSpaceOnUse"><stop offset="0" stop-color="#00613b"/><stop offset="0.13" stop-color="#146b4d"/><stop offset="0.41" stop-color="#48857c"/><stop offset="0.62" stop-color="#759ca4"/><stop offset="0.67" stop-color="#81a6b6"/><stop offset="0.79" stop-color="#9abad9"/><stop offset="0.85" stop-color="#a3c2e6"/><stop offset="0.89" stop-color="#c8dbf0"/><stop offset="0.94" stop-color="#e6eff8"/><stop offset="0.97" stop-color="#f8fbfd"/><stop offset="1" stop-color="#fff"/></linearGradient></defs><title>AxentixV2</title><g id="Calque_2" data-name="Calque 2"><path class="cls-1" d="M553.59,36.67H432L184.34,963.33H303.28L352.1,757.8s20-71.37,20.1-72.65L490.57,184.32l121.6,500.83h-4.91c4.82,7.09,8.27,14.64,9.44,23a47.54,47.54,0,0,1,.42,6.94c8.86,18.82,15.67,38.64,14.76,58.39L677,963.33H799.46Z"/><path class="cls-2" d="M305.81,582l-2,3.51c2.31,41.15,27,79.24,67.89,102.18A411.86,411.86,0,0,0,446,719.62c34,66.77,105.2,115.77,191.69,129.94,16.58,2.76,34.92,5.07,55.21,6.8,6.36,4.45,46.33,29.84,88.86-5.69,0,0-6.84-129.37-61.58-210.26,0,0-27.08-75.66-283.55-129.66-9.72-2-19.37-4.24-28.9-6.69-37.3-9.56-144.25-37.34-306.59-81.64l-.64.16C102,426.24,141.2,519,305.81,582Z"/><path class="cls-3" d="M692,855.71l.89.65c6.36,4.45,46.33,29.84,88.86-5.69,0,0-6.84-129.37-61.58-210.26,0,0-27.08-75.66-283.55-129.66-9.72-2-19.37-4.24-28.9-6.69-37.3-9.56-144.25-37.34-306.59-81.64"/><path class="cls-3" d="M100.44,422.46a.17.17,0,0,0,.07.12C102,426.24,141.2,519,305.81,582,352.75,600,410,615.6,479.44,626"/><path class="cls-3" d="M694.05,856.47l-1.14-.11c-20.29-1.73-38.63-4-55.21-6.8C551.21,835.39,480.05,786.39,446,719.62"/><path class="cls-3" d="M303.8,585.54c2.31,41.15,27,79.24,67.89,102.18A411.86,411.86,0,0,0,446,719.62c37.08,11.91,82.93,21.81,139.25,26.79"/></g></svg>